<svg width="10" height="20" viewBox="0 0 10 20" fill="none" xmlns="http://www.w3.org/2000/svg">
<path d="M0 9.61166C0 9.99092 0.127326 10.316 0.401567 10.5977L8.02155 18.8549C8.23702 19.0933 8.51126 19.2233 8.83448 19.2233C9.4809 19.2233 10 18.6598 10 17.9338C10 17.5762 9.86288 17.262 9.6474 17.0127L2.78159 9.61166L9.6474 2.21057C9.86288 1.96134 10 1.63626 10 1.2895C10 0.563479 9.4809 0 8.83448 0C8.51126 0 8.23702 0.130034 8.02155 0.368429L0.401567 8.61473C0.127326 8.90731 0 9.23239 0 9.61166Z" fill="#808080"/>
</svg>
