<svg width="15" height="15" viewBox="0 0 15 15" fill="none" xmlns="http://www.w3.org/2000/svg">
<path d="M0.354951 12.8627C-0.109094 13.3266 -0.131191 14.155 0.366 14.63C0.841094 15.127 1.6808 15.1049 2.14484 14.641L7.50346 9.28387L12.8621 14.641C13.3372 15.116 14.1548 15.127 14.6299 14.63C15.1271 14.155 15.116 13.3266 14.6409 12.8516L9.2823 7.49448L14.6409 2.14838C15.116 1.66237 15.1271 0.844993 14.6299 0.370029C14.1548 -0.127025 13.3372 -0.115979 12.8621 0.358984L7.50346 5.71613L2.14484 0.358984C1.6808 -0.104934 0.841094 -0.127025 0.366 0.370029C-0.131191 0.844993 -0.109094 1.67342 0.354951 2.13733L5.71357 7.49448L0.354951 12.8627Z" fill="#7C7C7C"/>
</svg>
