<svg width="21" height="21" viewBox="0 0 21 21" fill="none" xmlns="http://www.w3.org/2000/svg">
<path d="M0.496932 18.0077C-0.152732 18.6572 -0.183668 19.817 0.5124 20.482C1.17753 21.1778 2.35311 21.1469 3.00278 20.4974L10.5048 12.9974L18.0069 20.4974C18.672 21.1624 19.8167 21.1778 20.4818 20.482C21.1779 19.817 21.1624 18.6572 20.4973 17.9923L12.9952 10.4923L20.4973 3.00773C21.1624 2.32732 21.1779 1.18299 20.4818 0.518041C19.8167 -0.177835 18.672 -0.162371 18.0069 0.502577L10.5048 8.00258L3.00278 0.502577C2.35311 -0.146907 1.17753 -0.177835 0.5124 0.518041C-0.183668 1.18299 -0.152732 2.34278 0.496932 2.99227L7.999 10.4923L0.496932 18.0077Z" fill="#7C7C7C"/>
</svg>
