<svg width="115" height="14" viewBox="0 0 115 14" fill="none" xmlns="http://www.w3.org/2000/svg">
<path d="M12.163 0.569115L7.62642 13H4.87591L0.339349 0.569115H2.8934L6.30474 10.4995L9.69823 0.569115H12.163ZM30.277 2.64093V5.74865H35.6351V7.69544H30.277V10.9282H36.028V13H27.9194V0.569115H36.028V2.64093H30.277ZM52.4891 6.83814C52.4891 5.51646 52.7392 4.36744 53.2393 3.39107C53.7513 2.4147 54.4835 1.66456 55.4361 1.14065C56.4006 0.616743 57.5377 0.35479 58.8474 0.35479C59.5976 0.35479 60.2703 0.432185 60.8657 0.586975C61.461 0.741766 62.0445 0.956092 62.616 1.22995V3.42679H62.5446C62.1278 3.17674 61.6099 2.96837 60.9907 2.80167C60.3834 2.62307 59.7286 2.53377 59.0261 2.53377C56.3232 2.53377 54.9717 3.95665 54.9717 6.80242C54.9717 8.19553 55.2932 9.2493 55.9362 9.96372C56.5792 10.6781 57.5198 11.0353 58.7581 11.0353C59.7583 11.0353 60.5025 10.827 60.9907 10.4102V8.53488H58.6331V6.57023H63.3483V11.6605C62.3957 12.2439 61.5741 12.6487 60.8835 12.875C60.1929 13.1012 59.4607 13.2143 58.6867 13.2143C57.3769 13.2143 56.2577 12.9524 55.3289 12.4285C54.4002 11.9046 53.6917 11.1663 53.2035 10.2138C52.7273 9.2493 52.4891 8.12409 52.4891 6.83814ZM82.7854 2.64093V5.74865H88.1435V7.69544H82.7854V10.9282H88.5364V13H80.4278V0.569115H88.5364V2.64093H82.7854ZM108.123 2.73023H104.587V0.569115H114.017V2.73023H110.481V13H108.123V2.73023Z" fill="black"/>
</svg>
